HIERARCHY
ROOT Hips
{
	OFFSET 0.000000 0.000000 0.000000
	CHANNELS 6 Xposition Yposition Zposition Yrotation Xrotation Zrotation
	JOINT Chest
	{
		OFFSET 0.000000 -0.009281 11.569106
		CHANNELS 3 Yrotation Xrotation Zrotation
		JOINT Chest2
		{
			OFFSET -0.000000 0.016865 9.269641
			CHANNELS 3 Yrotation Xrotation Zrotation
			JOINT Chest3
			{
				OFFSET -0.000000 0.000001 8.374491
				CHANNELS 3 Yrotation Xrotation Zrotation
				JOINT Chest4
				{
					OFFSET -0.000000 0.000001 8.374493
					CHANNELS 3 Yrotation Xrotation Zrotation
					JOINT Neck
					{
						OFFSET -0.000000 0.000002 12.152554
						CHANNELS 3 Yrotation Xrotation Zrotation
						JOINT Head
						{
							OFFSET -0.000000 0.040101 7.802319
							CHANNELS 3 Yrotation Xrotation Zrotation
							End Site
							{
								OFFSET -0.000000 0.020947 14.853096
							}
						}
					}
					JOINT RightCollar
					{
						OFFSET 2.894404 0.000001 6.791374
						CHANNELS 3 Yrotation Xrotation Zrotation
						JOINT RightShoulder
						{
							OFFSET 13.574684 0.000001 0.000000
							CHANNELS 3 Yrotation Xrotation Zrotation
							JOINT RightElbow
							{
								OFFSET 23.923903 0.000002 0.000000
								CHANNELS 3 Yrotation Xrotation Zrotation
								JOINT RightWrist
								{
									OFFSET 19.846718 0.012767 0.000000
									CHANNELS 3 Yrotation Xrotation Zrotation
									End Site
									{
										OFFSET 14.973145 0.000001 0.000000
									}
								}
							}
						}
					}
					JOINT LeftCollar
					{
						OFFSET -2.894404 0.000001 6.791374
						CHANNELS 3 Yrotation Xrotation Zrotation
						JOINT LeftShoulder
						{
							OFFSET -13.574684 -0.000001 0.000000
							CHANNELS 3 Yrotation Xrotation Zrotation
							JOINT LeftElbow
							{
								OFFSET -23.923903 -0.000002 0.000000
								CHANNELS 3 Yrotation Xrotation Zrotation
								JOINT LeftWrist
								{
									OFFSET -19.846718 0.012763 0.000000
									CHANNELS 3 Yrotation Xrotation Zrotation
									End Site
									{
										OFFSET -14.973145 -0.000001 0.000000
									}
								}
							}
						}
					}
				}
			}
		}
	}
	JOINT RightHip
	{
		OFFSET 9.469263 0.004643 0.045487
		CHANNELS 3 Yrotation Xrotation Zrotation
		JOINT RightKnee
		{
			OFFSET 0.000000 0.002661 -40.478676
			CHANNELS 3 Yrotation Xrotation Zrotation
			JOINT RightAnkle
			{
				OFFSET 0.000000 0.049106 -35.224068
				CHANNELS 3 Yrotation Xrotation Zrotation
				JOINT RightToe
				{
					OFFSET -0.000001 12.539529 -6.151390
					CHANNELS 3 Yrotation Xrotation Zrotation
					End Site
					{
						OFFSET -0.000001 5.044994 -1.291870
					}
				}
			}
		}
	}
	JOINT LeftHip
	{
		OFFSET -9.469263 0.004641 0.045487
		CHANNELS 3 Yrotation Xrotation Zrotation
		JOINT LeftKnee
		{
			OFFSET 0.000000 0.002661 -40.478676
			CHANNELS 3 Yrotation Xrotation Zrotation
			JOINT LeftAnkle
			{
				OFFSET 0.000000 0.049106 -35.224068
				CHANNELS 3 Yrotation Xrotation Zrotation
				JOINT LeftToe
				{
					OFFSET -0.000001 12.539529 -6.151390
					CHANNELS 3 Yrotation Xrotation Zrotation
					End Site
					{
						OFFSET -0.000001 5.044994 -1.291870
					}
				}
			}
		}
	}
}
MOTION
Frames: 6
Frame Time: 0.016667
-30.521439 55.984177 80.332344 11.665457 10.759772 -95.206649 9.276635 -10.638644 2.547595 4.197436 -4.717770 1.368102 4.197435 -4.717770 1.368100 3.156894 -3.529159 1.058020 3.188745 -8.059695 -12.416462 0.152179 20.685592 -22.910114 11.090985 0.173880 0.100077 61.219573 -30.520113 -22.452369 -55.344531 -66.820171 124.140041 -30.072640 21.166574 25.397944 -5.578837 0.139165 -6.491970 -63.723356 -20.095332 9.475656 -64.758403 -57.612523 -5.342702 -2.516735 11.145028 -38.816744 -14.159671 39.284212 -13.439103 1.361075 -5.749301 -21.637078 -1.913637 -8.285913 0.921594 -1.473968 1.611407 0.240774 -20.767610 11.366281 3.518479 -4.955832 -2.662587 10.713328 9.363805 3.459463 1.712435 -0.219322 -0.090892 0.024752 
-30.157278 55.930996 80.259369 11.844778 11.013455 -95.332051 9.261816 -10.628663 2.516341 4.199713 -4.710509 1.355873 4.199708 -4.710509 1.355874 3.158497 -3.523790 1.048823 3.090047 -7.938249 -12.338758 -0.027276 20.901969 -22.825608 11.086500 0.151281 0.178398 61.264024 -30.433687 -22.509080 -55.110054 -67.026470 123.921953 -29.687376 21.140728 25.739201 -5.571516 0.129922 -6.342474 -63.617509 -20.003025 9.577441 -65.156965 -57.605474 -5.094292 -2.472177 11.371217 -38.580675 -14.796934 39.671255 -14.108389 1.375220 -5.857525 -21.544865 -1.627450 -8.881064 0.660446 -1.349369 1.633517 0.229741 -20.853483 11.413652 3.609403 -5.177806 -2.914199 10.719204 9.435418 3.933194 1.783438 -0.227871 -0.124290 0.030032 
-29.767567 55.847813 80.186836 11.905620 11.269533 -95.430242 9.225870 -10.636304 2.445522 4.185502 -4.719438 1.326543 4.185504 -4.719438 1.326544 3.147627 -3.530720 1.026789 3.000498 -7.806875 -12.266373 -0.193465 21.137492 -22.748973 11.087284 0.122101 0.264158 61.312730 -30.432587 -22.500422 -54.633440 -67.228753 123.421614 -29.350470 21.099221 26.104570 -5.584597 0.126151 -6.225350 -63.539235 -19.931385 9.671993 -65.414129 -57.620767 -4.924962 -2.356136 11.541318 -38.428157 -15.546619 39.909697 -15.249697 1.308622 -5.895293 -21.213943 -1.326742 -9.408249 0.541746 -1.228857 1.516354 0.217035 -20.937887 11.342300 3.608931 -5.390476 -3.196663 10.817667 9.481360 4.422717 1.857030 -0.240946 -0.147374 0.037750 
-29.367100 55.735142 80.118736 11.888232 11.545648 -95.473682 9.136718 -10.618003 2.309222 4.152854 -4.737370 1.283867 4.152855 -4.737370 1.283867 3.122851 -3.544523 0.994663 2.927129 -7.682297 -12.188590 -0.324193 21.364005 -22.652828 11.084984 0.059947 0.351218 61.332503 -30.499062 -22.366295 -53.897064 -67.497084 122.641989 -28.996964 21.047532 26.533130 -5.593440 0.039053 -6.140124 -63.495003 -19.902611 9.699863 -65.427031 -57.610597 -4.957583 -2.192645 11.671355 -38.315667 -16.426417 40.029567 -16.797532 1.192001 -5.805080 -21.011795 -1.100293 -9.868419 0.670471 -1.131194 1.281138 0.201109 -21.055586 11.223860 3.458501 -5.559212 -3.568077 10.994567 9.473523 4.954133 1.955380 -0.251081 -0.177755 0.055527 
-28.961737 55.580807 80.055031 11.815598 11.813807 -95.490293 8.999842 -10.573617 2.146741 4.099440 -4.751276 1.236248 4.099438 -4.751277 1.236247 3.082459 -3.555376 0.958643 2.867587 -7.574924 -12.104586 -0.421420 21.562151 -22.534794 11.059379 -0.002288 0.421883 61.319574 -30.609889 -22.116632 -52.829112 -67.911000 121.562751 -28.616293 20.964383 27.102271 -5.623101 -0.043033 -6.082566 -63.461596 -19.933646 9.738747 -65.346059 -57.586705 -5.131943 -1.978129 11.842632 -38.117076 -17.407079 40.038665 -18.670672 1.096244 -5.552534 -21.056240 -0.995917 -10.280879 0.998383 -1.069410 0.968517 0.177206 -21.162744 11.074657 3.213168 -5.693548 -4.000227 11.214807 9.417918 5.496561 2.110659 -0.261728 -0.202073 0.074050 
-28.536114 55.370300 79.995941 11.635527 12.046602 -95.517013 8.803773 -10.530323 2.030371 4.012862 -4.748729 1.194001 4.012865 -4.748729 1.194001 3.017230 -3.553913 0.926278 2.836934 -7.503225 -12.049416 -0.468884 21.695898 -22.453260 11.049338 -0.003125 0.401842 61.338343 -30.772963 -21.856882 -51.332362 -68.518538 120.090695 -28.229571 20.725698 27.820822 -5.685999 -0.026953 -6.131302 -63.368610 -19.986554 9.874817 -65.328765 -57.553155 -5.328450 -1.732869 12.063978 -37.762504 -18.398626 39.938589 -20.612408 0.980087 -5.218211 -21.341315 -0.984862 -10.616418 1.364398 -1.006901 0.592525 0.144747 -21.197975 10.839103 3.040683 -5.821217 -4.504298 11.423354 9.319021 6.067289 2.231580 -0.279188 -0.213831 0.093040 
